<svg width="100" height="100" version="1.1" xmlns="http://www.w3.org/2000/svg" desc="Created with imagetracer.js version 1.2.6" ><path fill="rgb(0,0,12)" stroke="rgb(0,0,12)" stroke-width="1" opacity="0.03529411764705882" d="M 0 0 L 42 0.5 L 31.5 3 L 14 14 L 3 31.5 L 0.5 42 L 0 0 Z " /><path fill="rgb(0,0,12)" stroke="rgb(0,0,12)" stroke-width="1" opacity="0.03529411764705882" d="M 58.5 0 L 100 0 L 100 41.5 L 99 41.5 L 97 31.5 L 86 14 L 76.5 7 Q 69.5 2 58.5 1 L 58.5 0 Z " /><path fill="rgb(0,0,12)" stroke="rgb(0,0,12)" stroke-width="1" opacity="0.03529411764705882" d="M 0.5 58 L 3 68.5 L 14 86 L 31.5 97 L 42 99.5 L 0 100 L 0.5 58 Z " /><path fill="rgb(0,0,12)" stroke="rgb(0,0,12)" stroke-width="1" opacity="0.03529411764705882" d="M 99.5 58 L 100 100 L 58 99.5 L 68.5 97 L 86 86 L 97 68.5 L 99.5 58 Z " /><path fill="rgb(195,195,225)" stroke="rgb(195,195,225)" stroke-width="1" opacity="1" d="M 72.5 18 L 74 19.5 L 74 32.5 L 73 32.5 L 73 19.5 L 72.5 18 Z " /><path fill="rgb(195,195,225)" stroke="rgb(195,195,225)" stroke-width="1" opacity="1" d="M 28.5 19 L 28 20.5 L 27.5 80 L 27 20.5 L 28.5 19 Z " /><path fill="rgb(195,195,225)" stroke="rgb(195,195,225)" stroke-width="1" opacity="1" d="M 72.5 34 L 73 36.5 L 71 37.5 L 72.5 34 Z " /><path fill="rgb(195,195,225)" stroke="rgb(195,195,225)" stroke-width="1" opacity="1" d="M 52 37 L 60 37.5 L 53 38 L 54 43.5 L 52 42.5 L 52 37 Z " /><path fill="rgb(195,195,225)" stroke="rgb(195,195,225)" stroke-width="1" opacity="1" d="M 69.5 43 L 71 44.5 L 71 55.5 L 70 55.5 L 70 44.5 L 69.5 43 Z " /><path fill="rgb(195,195,225)" stroke="rgb(195,195,225)" stroke-width="1" opacity="1" d="M 53.5 60 L 53 61.5 L 53 78.5 L 51.5 80 L 52 78.5 L 52 61.5 L 53.5 60 Z " /><path fill="rgb(195,195,225)" stroke="rgb(195,195,225)" stroke-width="1" opacity="1" d="M 43.5 80 L 48 80.5 L 43.5 81 L 43.5 80 Z " /><path fill="rgb(1,1,128)" stroke="rgb(1,1,128)" stroke-width="1" opacity="0.996078431372549" d="M 33.5 17 L 72.5 17 L 74 18.5 L 72.5 18 L 33.5 18 L 33.5 17 Z " /><path fill="rgb(1,1,128)" stroke="rgb(1,1,128)" stroke-width="1" opacity="0.996078431372549" d="M 72.5 37 L 71.5 39 L 68 38.5 L 72.5 37 Z " /><path fill="rgb(1,1,128)" stroke="rgb(1,1,128)" stroke-width="1" opacity="0.996078431372549" d="M 63.5 42 Q 69.5 40.5 71 43.5 L 69.5 43 L 63.5 43 L 63.5 42 Z " /><path fill="rgb(1,1,128)" stroke="rgb(1,1,128)" stroke-width="1" opacity="0.996078431372549" d="M 65.5 61 L 68 61.5 L 65.5 62 L 65.5 61 Z " /><path fill="rgb(0,0,128)" stroke="rgb(0,0,128)" stroke-width="1" opacity="1" d="M 42.5 0 L 57.5 0 L 62.5 1 L 76.5 7 L 86 14 L 93 23.5 L 99 37.5 L 100 42.5 L 100 57.5 L 97 68.5 L 86 86 L 76.5 93 L 62.5 99 L 57.5 100 L 42.5 100 L 31.5 97 L 14 86 L 7 76.5 L 1 62.5 L 0 57.5 L 0 42.5 L 3 31.5 L 14 14 L 31.5 3 L 42.5 0 Z M 34 17 L 27 19 L 27 80 L 29 81 L 49 81 L 50 80 L 53 80 L 53 61 L 68 62 L 71 57 L 71 44 L 70 42 Q 64 41 63 43 L 53 43 L 53 38 L 72 39 L 74 35 L 74 19 L 73 17 L 34 17 Z " /><path fill="rgb(254,254,254)" stroke="rgb(254,254,254)" stroke-width="1" opacity="1" d="M 29.5 19 L 28.5 21 L 29.5 19 Z " /><path fill="rgb(254,254,254)" stroke="rgb(254,254,254)" stroke-width="1" opacity="1" d="M 72.5 30 L 73 33.5 L 72 33.5 L 72.5 30 Z " /><path fill="rgb(254,254,254)" stroke="rgb(254,254,254)" stroke-width="1" opacity="1" d="M 71.5 36 L 70.5 38 L 71.5 36 Z " /><path fill="rgb(254,254,254)" stroke="rgb(254,254,254)" stroke-width="1" opacity="1" d="M 60.5 37 L 65 37.5 L 60.5 38 L 60.5 37 Z " /><path fill="rgb(254,254,254)" stroke="rgb(254,254,254)" stroke-width="1" opacity="1" d="M 54.5 43 L 59 43.5 L 54.5 44 L 54.5 43 Z " /><path fill="rgb(254,254,254)" stroke="rgb(254,254,254)" stroke-width="1" opacity="1" d="M 69.5 54 L 70 56.5 L 69 56.5 L 69.5 54 Z " /><path fill="rgb(254,254,254)" stroke="rgb(254,254,254)" stroke-width="1" opacity="1" d="M 68.5 58 L 69 59.5 L 67 60.5 L 68.5 58 Z " /><path fill="rgb(254,254,254)" stroke="rgb(254,254,254)" stroke-width="1" opacity="1" d="M 54.5 60 L 61 60.5 L 54.5 61 L 54.5 60 Z " /><path fill="rgb(254,254,254)" stroke="rgb(254,254,254)" stroke-width="1" opacity="1" d="M 51.5 78 L 50.5 80 L 49 79.5 L 51.5 78 Z " /><path fill="rgb(254,254,254)" stroke="rgb(254,254,254)" stroke-width="1" opacity="1" d="M 30.5 80 L 33 80.5 L 30.5 81 L 30.5 80 Z " /><path fill="rgb(254,254,254)" stroke="rgb(254,254,254)" stroke-width="1" opacity="1" d="M 39.5 80 L 43 80.5 L 39.5 81 L 39.5 80 Z " /><path fill="rgb(255,255,255)" stroke="rgb(255,255,255)" stroke-width="1" opacity="1" d="M 33.5 18 L 71.5 18 L 72 20.5 L 73 21.5 L 73 29.5 Q 70.8 30.7 72 35.5 L 69.5 38 L 52 37 L 52 44 L 58.5 44 L 59.5 43 L 69 43 Q 71 46 70 53.5 L 66.5 61 L 52 60 L 52 77.5 L 50.5 79 L 33.5 81 L 28 78.5 L 28 21.5 L 30.5 19 L 33.5 18 Z " /></svg>